<?xml version="1.0" encoding="utf-8"?>
<svg width="1544px" height="857px" viewBox="0 0 1544 857" version="1.1" xmlns:xlink="http://www.w3.org/1999/xlink" xmlns="http://www.w3.org/2000/svg">
  <desc>Created with Lunacy</desc>
  <defs>
    <rect width="1544" height="857" id="artboard_1" />
    <clipPath id="clip_1">
      <use xlink:href="#artboard_1" clip-rule="evenodd" />
    </clipPath>
  </defs>
  <g id="data_pipeline" clip-path="url(#clip_1)">
    <use xlink:href="#artboard_1" stroke="none" fill="#FFFFFF" />
    <g id="Group" transform="translate(282 0)">
      <g id="yellow_group" transform="translate(379.9297 318.759)">
        <path d="M45.7526 99.124L45.7526 76.2477L22.8763 76.2477L0 76.2477L0 61.0001L0 45.7526L22.8763 45.7526L45.7526 45.7526L45.7526 22.8763L45.7526 0L61.0002 0L76.2477 0L76.2477 22.8763L76.2477 45.7526L99.1241 45.7526L122 45.7526L122 61.0001L122 76.2477L99.1241 76.2477L76.2477 76.2477L76.2477 99.124L76.2477 122L61.0002 122L45.7526 122L45.7526 99.124L45.7526 99.124Z" transform="translate(62.07007 62.24084)" id="Shape" fill="#FFCC00" stroke="none" />
        <path d="M101.915 245.167C87.1583 242.642 66.9762 233.717 52.4126 223.23C30.6687 207.703 14.5636 186.152 5.0506 159.56C0.780911 147.329 0 142.289 0 123.07C0 103.852 0.780911 98.8011 5.0506 86.5802C12.4237 66.1953 21.1659 52.4126 36.6929 36.6929C52.4126 21.1659 66.1953 12.4237 86.5802 5.0506C98.8112 0.780923 103.852 0 123.07 0C142.289 0 147.339 0.780911 159.56 5.0506C179.945 12.4237 193.728 21.1659 209.448 36.6929C224.975 52.4126 233.717 66.1953 241.09 86.5802C245.36 98.8112 246.141 103.852 246.141 123.07C246.141 142.289 245.36 147.34 241.09 159.56C233.717 179.945 224.975 193.728 209.448 209.448C185.959 232.936 160.331 244.782 129.47 246.333C120.16 246.729 107.736 246.333 101.915 245.167L101.915 245.167ZM144.814 214.113C186.162 205.178 216.253 167.136 216.253 123.07C216.253 70.465 175.686 29.8878 123.07 29.8878C52.4126 29.8878 9.32028 100.931 39.989 167.126C45.425 179.164 66.9661 200.705 79.0044 206.141C99.7747 215.857 123.263 218.575 144.814 214.113L144.814 214.113Z" id="Shape" fill="#FFCC00" stroke="none" />
      </g>
      <g id="Black_group" transform="matrix(0.1 0 0 -0.1 0 857.4702)">
        <path d="M7344.19 5051.36L7344.19 4898.26L7191.09 4898.26L7037.99 4898.26L7037.99 4745.16L7037.99 4591.96L7192.99 4591.96L7349.99 4591.96L7338.49 4523.06C7325.09 4438.86 7282.99 4373.76 7215.99 4329.76C7168.09 4297.26 7001.59 4295.36 4501.89 4283.86C1613.59 4272.36 1787.79 4280.06 1466.19 4169.06C934.09 3987.26 472.79 3581.46 220.09 3070.36C-187.61 2251.06 -19.2101 1286.36 644.99 629.857C943.59 333.157 1293.89 141.757 1714.99 44.157C1883.39 3.95703 2876.79 -17.1431 2959.09 17.3569C3041.39 49.8569 3056.69 109.257 3056.69 371.457L3056.69 610.757L2903.59 610.757L2750.49 610.757L2750.49 455.757L2750.49 300.757L2287.29 310.357C1946.59 316.057 1789.59 327.557 1701.59 350.557C1008.69 528.357 518.69 1022.26 344.49 1717.06C298.59 1896.96 298.59 2386.96 344.49 2566.96C491.89 3158.36 901.49 3640.76 1429.79 3845.56C1774.29 3977.66 1542.69 3968.06 4492.29 3979.56L7162.39 3989.16L7269.59 4038.96C7460.99 4128.96 7604.59 4316.46 7640.89 4521.26L7654.29 4592.06L8264.89 4592.06L8875.49 4592.06L8875.49 4507.86C8875.49 4461.96 8862.09 4350.86 8846.79 4260.96C8722.39 3550.86 8224.69 3011.06 7501.19 2806.26L7353.79 2764.16L4683.69 2754.56L2013.59 2744.96L1906.39 2695.16C1592.49 2547.76 1450.89 2199.46 1586.79 1910.36C1649.99 1772.56 1766.69 1653.86 1906.39 1588.76C2007.89 1540.86 2030.79 1538.96 2382.99 1533.26L2750.49 1525.56L2750.49 1374.46L2750.49 1223.26L2903.59 1223.26L3056.69 1223.26L3056.69 1462.46C3056.69 1718.96 3041.39 1780.16 2966.69 1814.66C2937.99 1828.06 2763.79 1835.76 2486.29 1835.76C2111.09 1835.76 2042.19 1839.56 1986.69 1870.16C1887.19 1919.96 1845.09 1990.76 1837.39 2117.06C1827.79 2245.26 1866.09 2335.26 1952.19 2398.46C2005.79 2438.66 2015.39 2438.66 4670.19 2450.16C7562.39 2461.66 7388.19 2453.96 7709.69 2564.96C8239.89 2746.76 8701.19 3152.56 8955.79 3663.66C9078.29 3908.66 9145.29 4151.76 9172.09 4444.56L9185.49 4591.96L9336.69 4591.96L9487.99 4591.96L9487.99 4745.06L9487.99 4898.16L9334.89 4898.16L9181.79 4898.16L9181.79 5051.26L9181.79 5204.36L9028.69 5204.36L8875.59 5204.36L8875.59 5051.26L8875.59 4898.16L8262.99 4898.16L7650.49 4898.16L7650.49 5051.26L7650.49 5204.36L7497.39 5204.36L7344.29 5204.36L7344.29 5051.36L7344.19 5051.36Z" transform="translate(312.0103 3370.344)" id="Shape" fill="#303235" stroke="none" />
        <path d="M1004.9 2417.4C859.4 2392.5 660.4 2304.5 516.8 2201.1C302.4 2048 143.6 1835.5 49.8 1573.3C7.69995 1452.7 0 1403 0 1213.5C0 1024 7.69995 974.2 49.8 853.7C122.5 652.7 208.7 516.8 361.8 361.8C516.8 208.7 652.7 122.5 853.7 49.8C974.3 7.70007 1024 0 1213.5 0C1403 0 1452.8 7.69995 1573.3 49.8C1774.3 122.5 1910.2 208.7 2065.2 361.8C2218.3 516.8 2304.5 652.7 2377.2 853.7C2419.3 974.3 2427 1024 2427 1213.5C2427 1403 2419.3 1452.8 2377.2 1573.3C2304.5 1774.3 2218.3 1910.2 2065.2 2065.2C1833.6 2296.8 1580.9 2413.6 1276.6 2428.9C1184.8 2432.8 1062.3 2428.9 1004.9 2417.4L1004.9 2417.4ZM1427.9 2111.2C1835.6 2023.1 2132.3 1648 2132.3 1213.5C2132.3 694.8 1732.3 294.7 1213.5 294.7C516.8 294.7 91.9001 995.2 394.3 1647.9C447.9 1766.6 660.3 1979 779 2032.6C983.8 2128.4 1215.4 2155.2 1427.9 2111.2L1427.9 2111.2Z" transform="translate(3686.5 3073.8)" id="Shape" fill="#303235" stroke="none" />
        <path d="M459.4 995.3L459.4 765.6L229.7 765.6L0 765.6L0 612.5L0 459.4L229.7 459.4L459.4 459.4L459.4 229.7L459.4 0L612.5 0L765.601 0L765.601 229.7L765.601 459.4L995.301 459.4L1225 459.4L1225 612.5L1225 765.6L995.301 765.6L765.601 765.6L765.601 995.3L765.601 1225L612.5 1225L459.4 1225L459.4 995.3L459.4 995.3Z" transform="translate(4287.5 3674.799)" id="Shape" fill="#303235" stroke="none" />
        <path d="M6515.5 5185C6446.6 5150.5 6431.3 5083.6 6431.3 4832.8L6431.3 4593.5L6584.4 4593.5L6737.5 4593.5L6737.5 4748.5L6737.5 4903.5L7202.6 4893.9C7541.4 4888.2 7698.3 4876.7 7786.4 4853.7C8473.6 4677.8 8975 4176.3 9141.6 3498.7C9187.5 3307.3 9197.1 2949.4 9160.7 2744.6C9034.4 2021.1 8540.6 1483.2 7813.2 1276.5L7665.8 1234.4L4986.1 1224.8L2306.4 1215.2L2185.8 1150.1C2004 1050.6 1879.5 882.1 1847 694.6L1833.6 612.3L1221.1 612.3L606.8 612.3L620.2 771.2C673.8 1460.3 1121.7 2074.7 1741.8 2315.8C2086.3 2447.9 1854.7 2438.3 4804.3 2449.8L7474.4 2459.4L7581.6 2509.2C7721.3 2574.3 7838.1 2693 7901.3 2830.8C8035.3 3114.1 7903.2 3450.9 7595 3611.7C7495.5 3663.4 7484 3665.3 7116.5 3671L6737.5 3678.7L6737.5 3829.9L6737.5 3981.1L6584.4 3981.1L6431.3 3981.1L6431.3 3741.8C6431.3 3485.3 6446.6 3424.1 6521.3 3389.6C6550 3376.2 6724.2 3368.6 7001.7 3368.6C7376.9 3368.6 7445.8 3364.8 7501.3 3334.1C7612.3 3278.6 7646.8 3213.5 7646.8 3062.3C7646.8 2911.1 7612.3 2846 7501.3 2790.5C7440 2758 7275.4 2756 4890.5 2756C3361.2 2756 2287.4 2748.3 2201.2 2736.9C1870.1 2692.9 1546.6 2570.4 1259.5 2379C1081.5 2260.3 802 1980.9 683.4 1802.9C478.6 1494.7 361.8 1177 321.6 809.501L300.6 612.4L149.3 612.4L0 612.4L0 459.3L0 306.2L153.1 306.2L306.2 306.2L306.2 153.1L306.2 0L459.3 0L612.4 0L612.4 153.1L612.4 306.2L1225 306.2L1837.5 306.2L1837.5 153.1L1837.5 0L1990.6 0L2143.7 0L2143.7 153.1L2143.7 306.2L2296.8 306.2L2450 306.2L2450 459.3L2450 612.4L2295 612.4L2138 612.4L2149.5 681.3C2162.9 765.5 2205 830.6 2272 874.6C2319.9 907.1 2486.4 909.1 4986.1 920.5C7367.2 930.1 7660 933.9 7773 962.6C8653.5 1180.8 9277.5 1820.1 9457.4 2689.1C9489.9 2836.5 9489.9 3288.2 9457.4 3435.6C9277.5 4304.5 8638.2 4959.1 7773 5160.1C7612.2 5198.4 6580.5 5217.5 6515.5 5185L6515.5 5185Z" id="Shape" fill="#303235" stroke="none" />
      </g>
      <path d="M0 10C0 4.47715 4.47715 0 10 0C15.5228 0 20 4.47715 20 10C20 15.5228 15.5228 20 10 20C4.47715 20 0 15.5228 0 10Z" transform="translate(694.25 677)" id="Oval" fill="#888888" stroke="none" />
      <path d="M0 105.1L0 0L630 0L1260 0L1260 105.1L1260 210.2L630 210.2L0 210.2L0 105.1L0 105.1Z" transform="matrix(-0.1 0 0 -0.1 450.25 671.0201)" id="Shape" fill="#777777" stroke="none" />
      <path d="M0 105.1L0 0L630 0L1260 0L1260 105.1L1260 210.2L630 210.2L0 210.2L0 105.1L0 105.1Z" transform="matrix(-0.1 0 0 -0.1 318 669)" id="Shape" fill="#888888" stroke="none" />
      <path d="M0 10.5L0 0L209.5 0L419 0L419 10.5L419 21L209.5 21L0 21L0 10.5L0 10.5Z" transform="matrix(-1 0 0 1 684.75 677)" id="Shape" fill="#999999" stroke="none" />
      <path d="M0 10C0 4.47715 4.47715 0 10 0C15.5228 0 20 4.47715 20 10C20 15.5228 15.5228 20 10 20C4.47715 20 0 15.5228 0 10Z" transform="translate(494.25 649)" id="Oval" fill="#888888" stroke="none" />
      <path d="M0 10C0 4.47715 4.47715 0 10 0C15.5228 0 20 4.47715 20 10C20 15.5228 15.5228 20 10 20C4.47715 20 0 15.5228 0 10Z" transform="translate(708.25 181)" id="Oval" fill="#777777" stroke="none" />
      <path d="M0 105.1L0 0L630 0L1260 0L1260 105.1L1260 210.2L630 210.2L0 210.2L0 105.1L0 105.1Z" transform="matrix(-0.1 0 0 -0.1 666 173)" id="Shape" fill="#999999" stroke="none" />
      <path d="M0 10L0 0L166 0L332 0L332 10L332 20L166 20L0 20L0 10L0 10Z" transform="matrix(-1 0 0 1 698.75 181)" id="Shape" fill="#888888" stroke="none" />
      <path d="M0 10C0 4.47715 4.47715 0 10 0C15.5228 0 20 4.47715 20 10C20 15.5228 15.5228 20 10 20C4.47715 20 0 15.5228 0 10Z" transform="translate(508.25 153)" id="Oval" fill="#888888" stroke="none" />
      <path d="M0 105.1L0 0L630 0L1260 0L1260 105.1L1260 210.2L630 210.2L0 210.2L0 105.1L0 105.1Z" transform="matrix(-0.1 0 0 -0.1 401 173)" id="Shape" fill="#888888" stroke="none" />
      <path d="M0 10C0 4.47715 4.47715 0 10 0C15.5228 0 20 4.47715 20 10C20 15.5228 15.5228 20 10 20C4.47715 20 0 15.5228 0 10Z" transform="translate(818 152)" id="Oval" fill="#888888" stroke="none" />
      <path d="M0 10C0 4.47715 4.47715 0 10 0C15.5228 0 20 4.47715 20 10C20 15.5228 15.5228 20 10 20C4.47715 20 0 15.5228 0 10Z" transform="translate(235 389)" id="Oval" fill="#888888" stroke="none" />
      <path d="M0 10C0 4.47715 4.47715 0 10 0C15.5228 0 20 4.47715 20 10C20 15.5228 15.5228 20 10 20C4.47715 20 0 15.5228 0 10Z" transform="translate(818 539)" id="Oval" fill="#888888" stroke="none" />
    </g>
  </g>
</svg>